<?xml version="1.0" encoding="UTF-8"?>
<svg xmlns="http://www.w3.org/2000/svg" width="471" height="292" viewBox="0 0 471 292" fill="none">
  <path fill-rule="evenodd" clip-rule="evenodd" d="M284.174 182.204C284.753 182.204 285.222 182.672 285.222 183.249C285.222 183.806 284.786 184.261 284.236 184.293L284.174 184.295H127.813C127.235 184.295 126.766 183.827 126.766 183.249C126.766 182.692 127.202 182.237 127.752 182.206L127.813 182.204H284.174Z" fill="#968BB4"></path>
  <path fill-rule="evenodd" clip-rule="evenodd" d="M284.174 163.562C284.753 163.562 285.222 164.03 285.222 164.607C285.222 165.164 284.786 165.619 284.236 165.651L284.174 165.652H127.813C127.235 165.652 126.766 165.184 126.766 164.607C126.766 164.05 127.202 163.595 127.752 163.564L127.813 163.562H284.174Z" fill="#968BB4"></path>
  <path fill-rule="evenodd" clip-rule="evenodd" d="M284.174 144.92C284.753 144.92 285.222 145.388 285.222 145.965C285.222 146.522 284.786 146.977 284.236 147.009L284.174 147.011H127.813C127.235 147.011 126.766 146.543 126.766 145.965C126.766 145.409 127.202 144.953 127.752 144.922L127.813 144.92H284.174Z" fill="#968BB4"></path>
  <path fill-rule="evenodd" clip-rule="evenodd" d="M284.174 126.278C284.753 126.278 285.222 126.746 285.222 127.323C285.222 127.88 284.786 128.335 284.236 128.367L284.174 128.369H127.813C127.235 128.369 126.766 127.901 126.766 127.323C126.766 126.766 127.202 126.311 127.752 126.28L127.813 126.278H284.174Z" fill="#968BB4"></path>
  <rect width="21.8972" height="85.0871" transform="matrix(0.999948 -0.0102018 0.010249 0.999947 213.978 115.548)" fill="#A0DCFF"></rect>
  <rect width="22.0368" height="54.5645" transform="matrix(0.999948 -0.0102018 0.010249 0.999947 251.293 146.07)" fill="#A0DCFF"></rect>
  <rect width="22.0369" height="54.5645" transform="matrix(0.999948 -0.0102018 0.010249 0.999947 177.29 146.071)" fill="#A0DCFF"></rect>
  <path fill-rule="evenodd" clip-rule="evenodd" d="M163.193 200.428L141.26 200.637L140.945 174.503L162.844 174.259L163.193 200.428Z" fill="#A0DCFF"></path>
  <path fill-rule="evenodd" clip-rule="evenodd" d="M127.813 107.949C128.371 107.949 128.828 108.385 128.859 108.933L128.861 108.995V199.591H284.174C284.732 199.591 285.188 200.027 285.22 200.575L285.222 200.637C285.222 201.194 284.786 201.649 284.236 201.68L284.174 201.682H127.813C127.255 201.682 126.799 201.247 126.767 200.698L126.766 200.637V108.995C126.766 108.417 127.235 107.949 127.813 107.949Z" fill="#283859"></path>
  <path fill-rule="evenodd" clip-rule="evenodd" d="M157.43 205.027C158.009 205.027 158.478 205.495 158.478 206.073C158.478 206.629 158.042 207.084 157.492 207.116L157.43 207.118H144.543C143.964 207.118 143.495 206.65 143.495 206.073C143.495 205.516 143.931 205.061 144.481 205.029L144.543 205.027H157.43Z" fill="#A0DCFF"></path>
  <path fill-rule="evenodd" clip-rule="evenodd" d="M195.115 205.027C195.693 205.027 196.162 205.495 196.162 206.073C196.162 206.629 195.726 207.084 195.176 207.116L195.115 207.118H182.262C181.683 207.118 181.214 206.65 181.214 206.073C181.214 205.516 181.651 205.061 182.201 205.029L182.262 205.027H195.115Z" fill="#A0DCFF"></path>
  <path fill-rule="evenodd" clip-rule="evenodd" d="M232.066 205.027C232.644 205.027 233.114 205.495 233.114 206.073C233.114 206.629 232.677 207.084 232.127 207.116L232.066 207.118H219.213C218.635 207.118 218.166 206.65 218.166 206.073C218.166 205.516 218.602 205.061 219.152 205.029L219.213 205.027H232.066Z" fill="#A0DCFF"></path>
  <path fill-rule="evenodd" clip-rule="evenodd" d="M269.122 205.027C269.7 205.027 270.169 205.495 270.169 206.073C270.169 206.629 269.733 207.084 269.183 207.116L269.122 207.118H256.234C255.656 207.118 255.187 206.65 255.187 206.073C255.187 205.516 255.623 205.061 256.173 205.029L256.234 205.027H269.122Z" fill="#A0DCFF"></path>
  <path fill-rule="evenodd" clip-rule="evenodd" d="M121.352 125.825C121.91 125.825 122.367 126.26 122.398 126.809L122.4 126.87V129.1C122.4 129.678 121.931 130.146 121.352 130.146C120.794 130.146 120.338 129.711 120.306 129.162L120.305 129.1V126.87C120.305 126.293 120.774 125.825 121.352 125.825Z" fill="#283859"></path>
  <path fill-rule="evenodd" clip-rule="evenodd" d="M121.352 143.805C121.91 143.805 122.367 144.24 122.398 144.789L122.4 144.85V147.08C122.4 147.658 121.931 148.126 121.352 148.126C120.794 148.126 120.338 147.691 120.306 147.142L120.305 147.08V144.85C120.305 144.273 120.774 143.805 121.352 143.805Z" fill="#283859"></path>
  <path fill-rule="evenodd" clip-rule="evenodd" d="M121.352 163.562C121.91 163.562 122.367 163.997 122.398 164.546L122.4 164.607V166.837C122.4 167.415 121.931 167.883 121.352 167.883C120.794 167.883 120.338 167.447 120.306 166.899L120.305 166.837V164.607C120.305 164.03 120.774 163.562 121.352 163.562Z" fill="#283859"></path>
  <path fill-rule="evenodd" clip-rule="evenodd" d="M121.352 182.204C121.91 182.204 122.367 182.639 122.398 183.188L122.4 183.249V185.479C122.4 186.057 121.931 186.525 121.352 186.525C120.794 186.525 120.338 186.089 120.306 185.541L120.305 185.479V183.249C120.305 182.672 120.774 182.204 121.352 182.204Z" fill="#283859"></path>
  <path fill-rule="evenodd" clip-rule="evenodd" d="M371.872 87.9834C365.027 99.5519 352.384 107.322 337.925 107.322C316.166 107.322 298.529 89.7257 298.529 68.0173C298.529 46.309 316.166 28.7123 337.925 28.7123C350.254 28.7123 361.29 34.3572 368.485 43.2426L388.008 28.3987C376.308 13.6942 358.217 4.25122 337.925 4.25122C302.615 4.25122 273.977 32.824 273.977 68.0522C273.977 103.28 302.615 131.853 337.925 131.853C363.141 131.853 384.934 117.288 395.342 96.1371L371.872 87.9834Z" fill="#C1E5C0"></path>
  <path fill-rule="evenodd" clip-rule="evenodd" d="M399.813 91.015C402.816 85.1262 404.807 78.5754 405.471 71.6064C406.833 57.773 402.816 44.6365 395.133 34.2527L375.749 46.2393C380.953 52.4766 383.712 60.6999 382.874 69.4112C382.455 73.8365 381.128 77.9133 379.102 81.572L399.813 91.015Z" fill="#A0DCFF"></path>
  <path fill-rule="evenodd" clip-rule="evenodd" d="M294.932 96.7993C295.511 96.7993 295.98 97.2673 295.98 97.8447C295.98 98.4014 295.543 98.8564 294.993 98.8882L294.932 98.89H258.714C258.136 98.89 257.667 98.422 257.667 97.8447C257.667 97.288 258.103 96.8329 258.653 96.8011L258.714 96.7993H294.932Z" fill="#283859"></path>
  <path fill-rule="evenodd" clip-rule="evenodd" d="M428.382 47.1453C428.96 47.1453 429.429 47.6133 429.429 48.1906C429.429 48.7473 428.993 49.2024 428.443 49.2342L428.382 49.236H395.657C395.078 49.236 394.609 48.7679 394.609 48.1906C394.609 47.6339 395.045 47.1788 395.595 47.147L395.657 47.1453H428.382Z" fill="#283859"></path>
  <path fill-rule="evenodd" clip-rule="evenodd" d="M271.811 101.921C272.39 101.921 272.859 102.389 272.859 102.967C272.859 103.523 272.423 103.979 271.873 104.01L271.811 104.012H258.714C258.136 104.012 257.667 103.544 257.667 102.967C257.667 102.41 258.103 101.955 258.653 101.923L258.714 101.921H271.811Z" fill="#283859"></path>
  <path fill-rule="evenodd" clip-rule="evenodd" d="M428.382 50.8738C428.96 50.8738 429.43 51.3418 429.43 51.9191C429.43 52.4758 428.993 52.9309 428.443 52.9627L428.382 52.9645H415.32C414.741 52.9645 414.272 52.4965 414.272 51.9191C414.272 51.3624 414.708 50.9073 415.258 50.8756L415.32 50.8738H428.382Z" fill="#283859"></path>
  <path fill-rule="evenodd" clip-rule="evenodd" d="M337.96 107.287C344.84 107.287 351.301 105.545 356.924 102.444L358.845 64.8115L323.012 64.1146L324.374 61.1528L299.786 58.2258C298.983 61.3619 298.564 64.6024 298.564 67.9824C298.564 89.6908 316.201 107.287 337.96 107.287Z" fill="#D0C0E5"></path>
  <path fill-rule="evenodd" clip-rule="evenodd" d="M275.653 53.5567L240.239 41.2913L227.98 62.5466L275.548 82.0249C274.536 77.4951 273.977 72.8259 273.977 67.9824C274.012 63.0345 274.605 58.191 275.653 53.5567Z" fill="#D0C0E5"></path>
  <path fill-rule="evenodd" clip-rule="evenodd" d="M253.406 35.8206C253.406 35.8206 260.95 35.96 260.391 32.8937C259.832 29.8273 253.266 32.371 245.652 28.1896C239.68 24.9142 221.03 26.7958 222.182 41.4307C223.16 54.0445 236.711 66.0312 236.711 66.0312L261.334 62.6164C261.334 62.6164 243.662 46.6226 247.713 44.2531C251.764 41.8837 253.406 35.8206 253.406 35.8206Z" fill="white"></path>
  <path fill-rule="evenodd" clip-rule="evenodd" d="M230.89 27.1102C224.448 29.4234 220.653 34.2946 221.122 41.2984L221.137 41.5112C221.57 47.0852 224.304 52.8617 228.58 58.5669C230.203 60.7328 231.94 62.7383 233.678 64.5361L234.038 64.9055C234.452 65.3266 234.844 65.7126 235.208 66.0614L235.568 66.4023L235.915 66.7229C235.96 66.7638 235.994 66.794 236.016 66.8133C236.245 67.0161 236.552 67.1086 236.855 67.0665L261.478 63.6517C262.358 63.5296 262.696 62.4379 262.037 61.8421L261.435 61.2888L260.935 60.8225C260.59 60.4992 260.222 60.1513 259.836 59.782C258.181 58.1996 256.526 56.5499 254.984 54.9177C254.23 54.1203 253.521 53.3455 252.865 52.5991L252.527 52.2126C250.811 50.2327 249.534 48.5258 248.806 47.19C248.409 46.463 248.194 45.8773 248.161 45.4798C248.143 45.2675 248.16 45.2097 248.225 45.1657L248.242 45.1549C249.797 44.2457 251.108 42.8303 252.21 41.0534C252.883 39.9692 253.437 38.8147 253.884 37.6607L253.934 37.5321C253.998 37.3631 254.056 37.2036 254.109 37.0548L254.178 36.8562L254.251 36.8543C254.437 36.848 254.631 36.8392 254.831 36.8275C255.752 36.7737 256.652 36.6689 257.482 36.4985C258.59 36.2708 259.506 35.941 260.191 35.4635C261.147 34.7971 261.628 33.8404 261.421 32.7066C261.229 31.6519 260.558 30.9489 259.508 30.5501L259.359 30.4958C258.732 30.2777 258.023 30.1573 256.783 30.0234L254.708 29.8041C253.36 29.654 252.799 29.5597 251.765 29.3378C249.883 28.9341 248.129 28.322 246.414 27.4125L246.157 27.2738C242.681 25.3675 236.138 25.2261 230.89 27.1102ZM245.147 29.1056C247.131 30.1953 249.158 30.917 251.324 31.3817L251.83 31.4878C252.89 31.7029 253.6 31.7939 255.614 32.0037L256.518 32.0979C258.696 32.3346 259.266 32.5689 259.36 33.0806C259.455 33.6023 258.73 34.1076 257.059 34.4507C256.34 34.5985 255.536 34.692 254.708 34.7404C254.466 34.7546 254.233 34.7642 254.013 34.7699L253.777 34.7746L253.42 34.7754C252.941 34.7685 252.519 35.0866 252.394 35.548L252.341 35.7295C252.325 35.7799 252.307 35.8384 252.286 35.9045C252.189 36.2056 252.071 36.543 251.93 36.9072C251.526 37.9483 251.026 38.9888 250.428 39.9533C249.528 41.4055 248.489 42.5455 247.323 43.2667L247.183 43.3512C245.627 44.2613 245.771 46.0013 246.965 48.1896C247.831 49.7769 249.309 51.727 251.29 53.9783C251.964 54.7442 252.689 55.5372 253.459 56.3518C255.028 58.0124 256.707 59.6863 258.386 61.2915L258.771 61.6586L259.008 61.8832L237.055 64.9276L236.873 64.757L236.806 64.6937C236.319 64.2308 235.774 63.6924 235.186 63.0847C233.506 61.3464 231.825 59.4059 230.258 57.3149C226.261 51.9816 223.702 46.6242 223.246 41.5847L223.227 41.3487C222.746 35.2453 225.923 31.1155 231.6 29.0774C236.317 27.3839 242.241 27.5119 245.147 29.1056Z" fill="#283859"></path>
  <rect x="107.417" y="38.9565" width="159.958" height="36.3432" fill="#A0DCFF"></rect>
  <path fill-rule="evenodd" clip-rule="evenodd" d="M126.068 67.5643C131.835 67.5643 136.51 62.8997 136.51 57.1457C136.51 51.3916 131.835 46.7271 126.068 46.7271C120.3 46.7271 115.625 51.3916 115.625 57.1457C115.625 62.8997 120.3 67.5643 126.068 67.5643Z" fill="white"></path>
  <path fill-rule="evenodd" clip-rule="evenodd" d="M252.044 48.4692C252.622 48.4692 253.091 48.9373 253.091 49.5146C253.091 50.0713 252.655 50.5264 252.105 50.5582L252.044 50.5599H151.039C150.461 50.5599 149.992 50.0919 149.992 49.5146C149.992 48.9579 150.428 48.5028 150.978 48.471L151.039 48.4692H252.044Z" fill="white"></path>
  <path fill-rule="evenodd" clip-rule="evenodd" d="M252.044 54.0444C252.622 54.0444 253.091 54.5125 253.091 55.0898C253.091 55.6465 252.655 56.1016 252.105 56.1333L252.044 56.1351H151.039C150.461 56.1351 149.992 55.6671 149.992 55.0898C149.992 54.5331 150.428 54.078 150.978 54.0462L151.039 54.0444H252.044Z" fill="white"></path>
  <path fill-rule="evenodd" clip-rule="evenodd" d="M252.044 59.6196C252.622 59.6196 253.091 60.0876 253.091 60.665C253.091 61.2217 252.655 61.6768 252.105 61.7085L252.044 61.7103H151.039C150.461 61.7103 149.992 61.2423 149.992 60.665C149.992 60.1083 150.428 59.6532 150.978 59.6214L151.039 59.6196H252.044Z" fill="white"></path>
  <path fill-rule="evenodd" clip-rule="evenodd" d="M193.159 65.1948C193.738 65.1948 194.207 65.6628 194.207 66.2402C194.207 66.7969 193.771 67.2519 193.221 67.2837L193.159 67.2855H151.039C150.461 67.2855 149.992 66.8175 149.992 66.2402C149.992 65.6835 150.428 65.2284 150.978 65.1966L151.039 65.1948H193.159Z" fill="white"></path>
  <path fill-rule="evenodd" clip-rule="evenodd" d="M246.001 28.3638C251.624 30.5938 258.19 37.6673 258.679 39.0263C259.203 40.4201 257.562 42.685 255.326 40.664C253.056 38.643 249.04 34.2177 249.04 34.2177C251.694 38.0855 254.802 43.0683 254.837 44.1485C254.837 45.7862 251.973 46.4483 250.227 43.7652L245.023 36.3084C245.023 36.3084 250.053 45.2635 250.297 46.5876C250.542 47.9117 247.503 49.9676 244.709 44.2182C241.915 38.4688 241.321 38.3991 241.321 38.3991C241.321 38.3991 244.395 45.5423 244.674 47.1452C244.953 48.748 239.54 49.1313 237.549 41.7442C237.549 41.7442 233.708 44.5666 230.529 39.2354" fill="white"></path>
  <path fill-rule="evenodd" clip-rule="evenodd" d="M245.028 27.9776C245.241 27.4411 245.851 27.1791 246.388 27.3923C249.058 28.4511 252.079 30.5835 254.976 33.2538L255.228 33.4877C257.481 35.5946 259.331 37.7443 259.66 38.6592C260.086 39.7924 259.661 41.1852 258.684 41.9486C257.634 42.7687 256.252 42.6977 254.98 41.7356L254.958 41.7177L254.998 41.7954C255.533 42.8398 255.85 43.6386 255.883 44.1031L255.885 44.1485C255.885 45.5651 254.702 46.5667 253.226 46.6217C252.579 46.6459 251.931 46.494 251.324 46.1832L251.266 46.1524L251.271 46.1706C251.291 46.239 251.308 46.3012 251.319 46.3573L251.328 46.3982C251.592 47.8282 250.237 49.1595 248.604 49.1001C247.617 49.0642 246.648 48.5739 245.742 47.6392L245.703 47.5985L245.689 47.6641C245.538 48.29 245.022 48.7698 244.333 48.9946L244.253 49.0194C243.476 49.2466 242.518 49.1642 241.573 48.7861C239.662 48.0214 238.028 46.2089 236.995 43.4478L236.913 43.2216L236.862 43.2401C235.071 43.8669 233.117 43.6044 231.338 41.9453L231.233 41.8461C230.661 41.2926 230.125 40.6026 229.629 39.7697C229.333 39.2735 229.496 38.632 229.994 38.3369C230.491 38.0418 231.134 38.2048 231.43 38.701C231.835 39.3807 232.257 39.9249 232.692 40.3448C233.966 41.5768 235.228 41.6855 236.447 41.1583C236.668 41.0629 236.826 40.972 236.905 40.9187L236.928 40.9024C237.522 40.4661 238.37 40.7622 238.561 41.4728C239.362 44.4436 240.782 46.2169 242.353 46.8457C242.818 47.0317 243.246 47.0868 243.544 47.0395L243.574 47.0336L243.517 46.8343C243.323 46.187 242.934 45.1209 242.406 43.7773L242.131 43.0825L242.035 42.8452C241.742 42.1157 241.432 41.3603 241.118 40.6084L240.502 39.147L240.359 38.8114C240.041 38.0724 240.643 37.2669 241.444 37.3609L241.503 37.3701C242.308 37.5255 243.287 38.9525 245.34 43.1239L245.652 43.7621C246.742 46.0057 247.846 46.9805 248.681 47.0108C248.898 47.0187 249.072 46.9508 249.185 46.8398C249.215 46.8104 249.237 46.7811 249.251 46.7557L249.258 46.7392L249.256 46.7301C249.133 46.2738 248.276 44.5174 247.024 42.156L246.74 41.6232C246.329 40.8543 245.897 40.0571 245.459 39.2571L244.662 37.8119L244.109 36.8193C243.469 35.6791 245.072 34.6537 245.848 35.6623L245.883 35.7111L251.106 43.1959C251.711 44.126 252.477 44.5575 253.148 44.5325C253.579 44.5164 253.79 44.3382 253.79 44.1822C253.782 43.9431 253.101 42.5728 252.021 40.7635L251.726 40.2747C250.717 38.6139 249.441 36.6526 248.175 34.8082C247.449 33.7501 248.895 32.587 249.776 33.473L250.472 34.2309C250.601 34.3707 250.736 34.5168 250.877 34.6684C251.681 35.534 252.5 36.3994 253.283 37.2061L253.69 37.6229L254.142 38.0797C254.875 38.8164 255.512 39.4287 256.03 39.8894C256.686 40.4828 257.103 40.5282 257.391 40.3027C257.663 40.0906 257.796 39.6542 257.693 39.3795C257.631 39.2073 257.202 38.6113 256.563 37.8683L256.491 37.7851C255.693 36.8662 254.666 35.8136 253.555 34.7895C250.83 32.2781 248.001 30.2819 245.614 29.3351C245.077 29.1219 244.814 28.5141 245.028 27.9776Z" fill="#283859"></path>
  <path fill-rule="evenodd" clip-rule="evenodd" d="M323.151 178.058V182.239C323.151 182.816 323.62 183.284 324.199 183.284C324.778 183.284 325.247 182.816 325.247 182.239V178.058C325.247 177.48 324.778 177.012 324.199 177.012C323.62 177.012 323.151 177.48 323.151 178.058ZM323.151 186.42V190.602C323.151 191.179 323.62 191.647 324.199 191.647C324.778 191.647 325.247 191.179 325.247 190.602V186.42C325.247 185.843 324.778 185.375 324.199 185.375C323.62 185.375 323.151 185.843 323.151 186.42ZM323.151 194.783V198.964C323.151 199.542 323.62 200.01 324.199 200.01C324.778 200.01 325.247 199.542 325.247 198.964V194.783C325.247 194.206 324.778 193.738 324.199 193.738C323.62 193.738 323.151 194.206 323.151 194.783ZM323.151 203.146V207.327C323.151 207.905 323.62 208.373 324.199 208.373C324.778 208.373 325.247 207.905 325.247 207.327V203.146C325.247 202.569 324.778 202.1 324.199 202.1C323.62 202.1 323.151 202.569 323.151 203.146ZM323.151 211.509V215.69C323.151 216.267 323.62 216.735 324.199 216.735C324.778 216.735 325.247 216.267 325.247 215.69V211.509C325.247 210.931 324.778 210.463 324.199 210.463C323.62 210.463 323.151 210.931 323.151 211.509ZM323.151 219.871V224.053C323.151 224.63 323.62 225.098 324.199 225.098C324.778 225.098 325.247 224.63 325.247 224.053V219.871C325.247 219.294 324.778 218.826 324.199 218.826C323.62 218.826 323.151 219.294 323.151 219.871ZM323.151 228.234V232.416C323.151 232.993 323.62 233.461 324.199 233.461C324.778 233.461 325.247 232.993 325.247 232.416V228.234C325.247 227.657 324.778 227.189 324.199 227.189C323.62 227.189 323.151 227.657 323.151 228.234ZM323.151 236.597V240.778C323.151 241.356 323.62 241.824 324.199 241.824C324.778 241.824 325.247 241.356 325.247 240.778V236.597C325.247 236.02 324.778 235.552 324.199 235.552C323.62 235.552 323.151 236.02 323.151 236.597ZM323.151 244.96V249.141C323.151 249.718 323.62 250.186 324.199 250.186C324.778 250.186 325.247 249.718 325.247 249.141V244.96C325.247 244.382 324.778 243.914 324.199 243.914C323.62 243.914 323.151 244.382 323.151 244.96ZM323.151 253.322V257.504C323.151 258.081 323.62 258.549 324.199 258.549C324.778 258.549 325.247 258.081 325.247 257.504V253.322C325.247 252.745 324.778 252.277 324.199 252.277C323.62 252.277 323.151 252.745 323.151 253.322ZM323.151 261.685V265.867C323.151 266.444 323.62 266.912 324.199 266.912C324.778 266.912 325.247 266.444 325.247 265.867V261.685C325.247 261.108 324.778 260.64 324.199 260.64C323.62 260.64 323.151 261.108 323.151 261.685ZM323.151 270.048V274.229C323.151 274.807 323.62 275.275 324.199 275.275C324.778 275.275 325.247 274.807 325.247 274.229V270.048C325.247 269.471 324.778 269.003 324.199 269.003C323.62 269.003 323.151 269.471 323.151 270.048ZM323.151 278.411V282.592C323.151 283.169 323.62 283.637 324.199 283.637C324.778 283.637 325.247 283.169 325.247 282.592V278.411C325.247 277.833 324.778 277.365 324.199 277.365C323.62 277.365 323.151 277.833 323.151 278.411ZM323.151 286.774V290.432C323.151 291.01 323.62 291.478 324.199 291.478C324.778 291.478 325.247 291.01 325.247 290.432V286.774C325.247 286.196 324.778 285.728 324.199 285.728C323.62 285.728 323.151 286.196 323.151 286.774Z" fill="#A0DCFF"></path>
  <path fill-rule="evenodd" clip-rule="evenodd" d="M269.96 236.736V240.918C269.96 241.495 270.429 241.963 271.008 241.963C271.586 241.963 272.055 241.495 272.055 240.918V236.736C272.055 236.159 271.586 235.691 271.008 235.691C270.429 235.691 269.96 236.159 269.96 236.736ZM269.96 245.099V249.28C269.96 249.858 270.429 250.326 271.008 250.326C271.586 250.326 272.055 249.858 272.055 249.28V245.099C272.055 244.522 271.586 244.054 271.008 244.054C270.429 244.054 269.96 244.522 269.96 245.099ZM269.96 253.462V257.643C269.96 258.221 270.429 258.689 271.008 258.689C271.586 258.689 272.055 258.221 272.055 257.643V253.462C272.055 252.884 271.586 252.416 271.008 252.416C270.429 252.416 269.96 252.884 269.96 253.462ZM269.96 261.825V266.006C269.96 266.583 270.429 267.051 271.008 267.051C271.586 267.051 272.055 266.583 272.055 266.006V261.825C272.055 261.247 271.586 260.779 271.008 260.779C270.429 260.779 269.96 261.247 269.96 261.825ZM269.96 270.187V274.369C269.96 274.946 270.429 275.414 271.008 275.414C271.586 275.414 272.055 274.946 272.055 274.369V270.187C272.055 269.61 271.586 269.142 271.008 269.142C270.429 269.142 269.96 269.61 269.96 270.187ZM269.96 278.55V282.731C269.96 283.309 270.429 283.777 271.008 283.777C271.586 283.777 272.055 283.309 272.055 282.731V278.55C272.055 277.973 271.586 277.505 271.008 277.505C270.429 277.505 269.96 277.973 269.96 278.55ZM269.96 286.913V290.432C269.96 291.01 270.429 291.478 271.008 291.478C271.586 291.478 272.055 291.01 272.055 290.432V286.913C272.055 286.336 271.586 285.868 271.008 285.868C270.429 285.868 269.96 286.336 269.96 286.913Z" fill="#A0DCFF"></path>
  <path fill-rule="evenodd" clip-rule="evenodd" d="M225.745 268.166V272.348C225.745 272.925 226.214 273.393 226.792 273.393C227.371 273.393 227.84 272.925 227.84 272.348V268.166C227.84 267.589 227.371 267.121 226.792 267.121C226.214 267.121 225.745 267.589 225.745 268.166ZM225.745 276.529V280.71C225.745 281.288 226.214 281.756 226.792 281.756C227.371 281.756 227.84 281.288 227.84 280.71V276.529C227.84 275.952 227.371 275.484 226.792 275.484C226.214 275.484 225.745 275.952 225.745 276.529ZM225.745 284.892V289.073C225.745 289.65 226.214 290.118 226.792 290.118C227.371 290.118 227.84 289.65 227.84 289.073V284.892C227.84 284.314 227.371 283.846 226.792 283.846C226.214 283.846 225.745 284.314 225.745 284.892Z" fill="#A0DCFF"></path>
  <path fill-rule="evenodd" clip-rule="evenodd" d="M384.026 154.642V158.823C384.026 159.4 384.495 159.868 385.074 159.868C385.653 159.868 386.122 159.4 386.122 158.823V154.642C386.122 154.064 385.653 153.596 385.074 153.596C384.495 153.596 384.026 154.064 384.026 154.642ZM384.026 163.004V167.186C384.026 167.763 384.495 168.231 385.074 168.231C385.653 168.231 386.122 167.763 386.122 167.186V163.004C386.122 162.427 385.653 161.959 385.074 161.959C384.495 161.959 384.026 162.427 384.026 163.004ZM384.026 171.367V175.548C384.026 176.126 384.495 176.594 385.074 176.594C385.653 176.594 386.122 176.126 386.122 175.548V171.367C386.122 170.79 385.653 170.322 385.074 170.322C384.495 170.322 384.026 170.79 384.026 171.367ZM384.026 179.73V183.911C384.026 184.489 384.495 184.957 385.074 184.957C385.653 184.957 386.122 184.489 386.122 183.911V179.73C386.122 179.153 385.653 178.684 385.074 178.684C384.495 178.684 384.026 179.153 384.026 179.73ZM384.026 188.093V192.274C384.026 192.851 384.495 193.319 385.074 193.319C385.653 193.319 386.122 192.851 386.122 192.274V188.093C386.122 187.515 385.653 187.047 385.074 187.047C384.495 187.047 384.026 187.515 384.026 188.093ZM384.026 196.455V200.637C384.026 201.214 384.495 201.682 385.074 201.682C385.653 201.682 386.122 201.214 386.122 200.637V196.455C386.122 195.878 385.653 195.41 385.074 195.41C384.495 195.41 384.026 195.878 384.026 196.455ZM384.026 204.818V209C384.026 209.577 384.495 210.045 385.074 210.045C385.653 210.045 386.122 209.577 386.122 209V204.818C386.122 204.241 385.653 203.773 385.074 203.773C384.495 203.773 384.026 204.241 384.026 204.818ZM384.026 213.181V217.362C384.026 217.94 384.495 218.408 385.074 218.408C385.653 218.408 386.122 217.94 386.122 217.362V213.181C386.122 212.604 385.653 212.136 385.074 212.136C384.495 212.136 384.026 212.604 384.026 213.181ZM384.026 221.544V225.725C384.026 226.302 384.495 226.77 385.074 226.77C385.653 226.77 386.122 226.302 386.122 225.725V221.544C386.122 220.966 385.653 220.498 385.074 220.498C384.495 220.498 384.026 220.966 384.026 221.544ZM384.026 229.906V234.088C384.026 234.665 384.495 235.133 385.074 235.133C385.653 235.133 386.122 234.665 386.122 234.088V229.906C386.122 229.329 385.653 228.861 385.074 228.861C384.495 228.861 384.026 229.329 384.026 229.906ZM384.026 238.269V242.451C384.026 243.028 384.495 243.496 385.074 243.496C385.653 243.496 386.122 243.028 386.122 242.451V238.269C386.122 237.692 385.653 237.224 385.074 237.224C384.495 237.224 384.026 237.692 384.026 238.269ZM384.026 246.632V250.813C384.026 251.391 384.495 251.859 385.074 251.859C385.653 251.859 386.122 251.391 386.122 250.813V246.632C386.122 246.055 385.653 245.587 385.074 245.587C384.495 245.587 384.026 246.055 384.026 246.632ZM384.026 254.995V259.176C384.026 259.753 384.495 260.221 385.074 260.221C385.653 260.221 386.122 259.753 386.122 259.176V254.995C386.122 254.417 385.653 253.949 385.074 253.949C384.495 253.949 384.026 254.417 384.026 254.995ZM384.026 263.358V267.539C384.026 268.116 384.495 268.584 385.074 268.584C385.653 268.584 386.122 268.116 386.122 267.539V263.358C386.122 262.78 385.653 262.312 385.074 262.312C384.495 262.312 384.026 262.78 384.026 263.358ZM384.026 271.72V275.902C384.026 276.479 384.495 276.947 385.074 276.947C385.653 276.947 386.122 276.479 386.122 275.902V271.72C386.122 271.143 385.653 270.675 385.074 270.675C384.495 270.675 384.026 271.143 384.026 271.72ZM384.026 280.083V284.264C384.026 284.842 384.495 285.31 385.074 285.31C385.653 285.31 386.122 284.842 386.122 284.264V280.083C386.122 279.506 385.653 279.038 385.074 279.038C384.495 279.038 384.026 279.506 384.026 280.083ZM384.026 288.446V290.432C384.026 291.009 384.495 291.477 385.074 291.477C385.653 291.477 386.122 291.009 386.122 290.432V288.446C386.122 287.869 385.653 287.4 385.074 287.4C384.495 287.4 384.026 287.869 384.026 288.446Z" fill="#A0DCFF"></path>
  <path opacity="0.41" fill-rule="evenodd" clip-rule="evenodd" d="M396.949 153.039C298.494 162.482 295.211 228.443 272.091 236.736C248.97 245.029 249.354 257.155 229.517 264.926C217.258 269.734 204.161 291.164 196.652 289.944L197.56 290.746H397.263L396.949 153.039Z" fill="#D9F8CB"></path>
  <path fill-rule="evenodd" clip-rule="evenodd" d="M345.469 164.886C345.714 164.991 342.78 158.266 338.973 156.907C335.166 155.583 339.497 151.157 343.793 153.945C348.089 156.732 348.962 159.903 348.962 159.903" fill="white"></path>
  <path fill-rule="evenodd" clip-rule="evenodd" d="M337.685 153.071C339.388 151.697 342.061 151.574 344.364 153.069C344.842 153.379 345.292 153.701 345.716 154.036C347.217 155.219 348.33 156.497 349.111 157.785C349.389 158.245 349.607 158.676 349.77 159.068C349.874 159.317 349.939 159.506 349.972 159.627C350.125 160.183 349.797 160.759 349.239 160.911C348.701 161.059 348.146 160.76 347.969 160.239L347.94 160.146L347.934 160.127C347.91 160.056 347.877 159.971 347.836 159.871C347.711 159.574 347.541 159.236 347.318 158.867C346.664 157.789 345.716 156.701 344.417 155.676C344.043 155.381 343.645 155.096 343.221 154.821C341.676 153.818 339.996 153.895 339.003 154.697C338.338 155.234 338.378 155.593 339.326 155.923C341.268 156.616 343.046 158.423 344.623 160.882C345.177 161.746 345.67 162.643 346.041 163.43L346.139 163.643C346.233 163.851 346.313 164.038 346.373 164.196L346.401 164.272C346.449 164.404 346.483 164.514 346.505 164.619C346.532 164.754 346.544 164.872 346.518 165.036C346.421 165.666 345.758 166.147 345.056 165.847C344.695 165.693 344.466 165.36 344.427 164.997L344.425 164.968L344.411 164.931C344.367 164.817 344.304 164.668 344.226 164.497L344.144 164.319C343.811 163.613 343.362 162.795 342.858 162.009C341.51 159.906 340.018 158.39 338.628 157.894C336.065 157.002 335.796 154.596 337.685 153.071Z" fill="#283859"></path>
  <path fill-rule="evenodd" clip-rule="evenodd" d="M348.542 153.771C346.098 155.757 342.535 159.66 342.85 162.796C343.304 167.325 347.739 171.646 357.623 171.681C373.758 171.716 372.396 149.868 372.396 149.868L372.431 137.568L352.664 140.425L352.105 153.736" fill="white"></path>
  <path fill-rule="evenodd" clip-rule="evenodd" d="M372.281 136.533C372.894 136.445 373.444 136.901 373.477 137.509L373.479 137.571L373.444 149.835L373.455 150.089L373.458 150.158C373.566 153.366 373.23 157.283 372.066 161.08C369.85 168.309 365.209 172.743 357.619 172.726C348.177 172.693 342.39 168.714 341.807 162.899C341.493 159.768 344.263 155.899 347.881 152.96C348.33 152.595 348.989 152.663 349.355 153.111C349.72 153.558 349.653 154.217 349.204 154.581C346.096 157.107 343.672 160.492 343.892 162.691C344.354 167.302 349.16 170.606 357.625 170.636C364.165 170.65 368.091 166.899 370.063 160.469C370.678 158.463 371.058 156.308 371.246 154.115C371.367 152.693 371.396 151.426 371.369 150.406L371.354 149.986L371.351 149.933L371.349 149.865L371.38 138.776L353.674 141.335L353.152 153.78C353.128 154.336 352.673 154.772 352.122 154.781L352.061 154.78C351.503 154.757 351.066 154.303 351.057 153.753L351.058 153.692L351.617 140.381C351.637 139.9 351.984 139.497 352.452 139.401L352.513 139.39L372.281 136.533Z" fill="#283859"></path>
  <path fill-rule="evenodd" clip-rule="evenodd" d="M396.883 151.999C397.459 151.943 397.971 152.364 398.027 152.939C398.082 153.513 397.66 154.024 397.084 154.08C374.335 156.269 355.608 161.567 340.114 169.638C327.117 176.409 316.694 184.924 307.586 195.433C303.136 200.568 299.363 205.68 294.664 212.68L293.688 214.144C292.58 215.815 289.926 219.824 288.9 221.349L288.4 222.088C286.675 224.625 285.251 226.605 283.878 228.346L283.737 228.525C279.897 233.359 276.41 236.311 272.48 237.72C263.475 240.95 258.089 244.495 251.571 250.607L250.822 251.315L248.577 253.462C245.473 256.421 243.635 258.028 241.228 259.782C238.009 262.129 234.504 264.075 230.317 265.747L229.935 265.899C225.781 267.528 221.715 270.934 215.693 277.272L210.687 282.603L210.212 283.1C208.629 284.751 207.35 286.009 206.151 287.072C202.841 290.009 200.221 291.368 197.811 290.976C197.24 290.884 196.852 290.346 196.945 289.777C197.038 289.207 197.576 288.82 198.147 288.913C199.74 289.171 201.887 288.058 204.759 285.51L205.026 285.271C206.057 284.339 207.174 283.238 208.524 281.836L209.291 281.032C210.414 279.845 213.246 276.813 213.759 276.27L214.391 275.604C220.432 269.266 224.594 265.79 229.016 264.013L229.169 263.953C233.358 262.312 236.819 260.407 239.992 258.094L240.267 257.892C242.498 256.245 244.286 254.666 247.321 251.768L249.095 250.069C249.289 249.884 249.471 249.712 249.645 249.546L249.904 249.302C256.72 242.875 262.361 239.128 271.771 235.753C275.266 234.499 278.476 231.783 282.094 227.226L282.51 226.697C283.811 225.025 285.183 223.103 286.845 220.651L288.163 218.683C289.713 216.355 292.032 212.849 292.395 212.306L292.925 211.514C297.666 204.45 301.485 199.276 306.001 194.066C315.274 183.366 325.902 174.683 339.144 167.785C354.885 159.585 373.873 154.213 396.883 151.999Z" fill="#C1E5C0"></path>
  <path fill-rule="evenodd" clip-rule="evenodd" d="M226.793 268.166C228.201 268.166 229.342 267.028 229.342 265.623C229.342 264.218 228.201 263.079 226.793 263.079C225.385 263.079 224.243 264.218 224.243 265.623C224.243 267.028 225.385 268.166 226.793 268.166Z" fill="#C1E5C0"></path>
  <path fill-rule="evenodd" clip-rule="evenodd" d="M324.199 180.601C325.608 180.601 326.749 179.462 326.749 178.058C326.749 176.653 325.608 175.514 324.199 175.514C322.791 175.514 321.65 176.653 321.65 178.058C321.65 179.462 322.791 180.601 324.199 180.601Z" fill="#C1E5C0"></path>
  <path fill-rule="evenodd" clip-rule="evenodd" d="M271.008 239.28C272.416 239.28 273.558 238.141 273.558 236.736C273.558 235.331 272.416 234.193 271.008 234.193C269.6 234.193 268.458 235.331 268.458 236.736C268.458 238.141 269.6 239.28 271.008 239.28Z" fill="#C1E5C0"></path>
  <path fill-rule="evenodd" clip-rule="evenodd" d="M385.074 156.802C386.483 156.802 387.624 155.663 387.624 154.259C387.624 152.854 386.483 151.715 385.074 151.715C383.666 151.715 382.525 152.854 382.525 154.259C382.525 155.663 383.666 156.802 385.074 156.802Z" fill="#C1E5C0"></path>
  <path fill-rule="evenodd" clip-rule="evenodd" d="M352.454 156.07C352.523 152.447 350.009 152.063 346.866 155.13C345.294 156.663 343.338 159.311 342.849 161.68" fill="white"></path>
  <path fill-rule="evenodd" clip-rule="evenodd" d="M346.133 154.382C349.864 150.743 353.593 151.353 353.501 156.091C353.49 156.668 353.012 157.127 352.434 157.116C351.855 157.105 351.395 156.628 351.406 156.05C351.431 154.748 351.124 154.193 350.695 154.123C350.06 154.019 348.916 154.591 347.598 155.877C345.84 157.592 344.261 160.025 343.875 161.891C343.759 162.457 343.205 162.821 342.638 162.704C342.071 162.588 341.706 162.035 341.823 161.47C342.306 159.131 344.103 156.363 346.133 154.382Z" fill="#283859"></path>
  <path fill-rule="evenodd" clip-rule="evenodd" d="M347.948 163.388C347.494 161.019 348.717 158.405 350.323 156.663C353.187 153.562 354.898 152.76 355.737 156.14" fill="white"></path>
  <path fill-rule="evenodd" clip-rule="evenodd" d="M353.598 152.943C355.199 152.646 356.227 153.765 356.754 155.889C356.893 156.449 356.55 157.016 355.988 157.155C355.427 157.294 354.859 156.952 354.72 156.391C354.55 155.706 354.353 155.268 354.168 155.066C354.094 154.986 354.079 154.981 353.982 154.999C353.449 155.098 352.486 155.864 351.094 157.371C349.509 159.09 348.629 161.374 348.977 163.192C349.086 163.759 348.713 164.306 348.145 164.415C347.577 164.523 347.028 164.151 346.919 163.584C346.431 161.037 347.554 158.122 349.553 155.954L349.792 155.697C351.368 154.023 352.511 153.145 353.598 152.943Z" fill="#283859"></path>
  <path fill-rule="evenodd" clip-rule="evenodd" d="M354.025 167.046C354.025 167.046 351.895 163.806 353.048 160.043C354.165 156.279 357.588 153.805 359.09 156.663" fill="white"></path>
  <path fill-rule="evenodd" clip-rule="evenodd" d="M355.372 154.982C357.141 153.888 359.013 154.267 360.018 156.177C360.286 156.689 360.089 157.321 359.576 157.589C359.083 157.847 358.477 157.674 358.193 157.204L358.162 157.148C357.754 156.373 357.261 156.273 356.477 156.759C355.488 157.37 354.526 158.745 354.05 160.348C353.534 162.031 353.716 163.737 354.341 165.324C354.448 165.597 354.561 165.846 354.675 166.067L354.743 166.197C354.791 166.287 354.831 166.358 354.861 166.407L354.902 166.473C355.219 166.956 355.084 167.604 354.6 167.921C354.116 168.237 353.467 168.103 353.149 167.62C352.947 167.313 352.666 166.79 352.39 166.089C351.606 164.098 351.375 161.927 352.043 159.746C352.655 157.686 353.918 155.882 355.372 154.982Z" fill="#283859"></path>
  <path fill-rule="evenodd" clip-rule="evenodd" d="M359.054 167.047C359.054 167.047 356.749 163.736 357.273 160.496C357.797 157.255 360.382 155.06 361.918 157.255C361.918 157.255 361.779 160.949 363.804 161.402" fill="white"></path>
  <path fill-rule="evenodd" clip-rule="evenodd" d="M358.586 156.002C360.014 154.928 361.7 155.117 362.778 156.657C362.894 156.822 362.959 157.018 362.966 157.219L362.964 157.45C362.965 157.596 362.972 157.773 362.987 157.97C363.016 158.361 363.074 158.744 363.163 159.092C363.355 159.839 363.644 160.262 363.987 160.369L364.034 160.382C364.598 160.508 364.954 161.067 364.827 161.63C364.7 162.194 364.14 162.548 363.575 162.422C362.267 162.129 361.508 161.071 361.133 159.61C361.01 159.133 360.935 158.632 360.897 158.128C360.888 158.003 360.881 157.883 360.876 157.771L360.872 157.624L360.863 157.616C360.578 157.336 360.294 157.353 359.901 157.632L359.847 157.672C359.141 158.203 358.521 159.346 358.308 160.662C358.299 160.717 358.291 160.772 358.284 160.827C358.125 162.092 358.442 163.507 359.081 164.921C359.268 165.335 359.468 165.716 359.667 166.054L359.741 166.177C359.775 166.233 359.806 166.283 359.832 166.324L359.915 166.45C360.245 166.924 360.128 167.576 359.653 167.905C359.177 168.234 358.524 168.117 358.194 167.643L358.14 167.563C358.069 167.456 357.974 167.305 357.861 167.114C357.625 166.714 357.39 166.266 357.17 165.78C356.387 164.046 355.989 162.274 356.205 160.566C356.215 160.486 356.227 160.408 356.239 160.329C356.533 158.511 357.416 156.881 358.586 156.002Z" fill="#283859"></path>
  <path fill-rule="evenodd" clip-rule="evenodd" d="M347.32 62.6165L348.752 106.068L350.917 150.704L374.562 150.077L372.536 103.211L371.104 76.9029C368.939 69.1324 364.294 64.8814 359.055 64.1845L347.32 62.6165Z" fill="#D0C0E5"></path>
  <path fill-rule="evenodd" clip-rule="evenodd" d="M316.621 54.9156L319.659 61.6755L315.119 60.6999C314.63 61.571 308.762 74.2197 322.977 77.4951C332.302 79.6206 343.129 72.0593 348.019 65.16L340.125 63.7314L333.664 48.2603L316.621 54.9156Z" fill="white"></path>
  <path fill-rule="evenodd" clip-rule="evenodd" d="M316.239 53.9421L316.18 53.967C315.663 54.2053 315.428 54.8178 315.664 55.3433L317.856 60.2186L315.339 59.6779C314.89 59.5813 314.429 59.7886 314.205 60.1891C313.919 60.6973 313.474 61.7776 313.135 62.9388C312.622 64.6971 312.369 66.5028 312.489 68.2662C312.827 73.265 316.043 76.9703 322.741 78.5136C327.38 79.571 332.576 78.4514 337.67 75.6254C342.117 73.1588 346.226 69.4996 348.874 65.7635L348.909 65.7109C349.296 65.0914 348.938 64.2641 348.205 64.1314L340.873 62.8041L334.631 47.8581C334.412 47.3334 333.813 47.0796 333.282 47.2868L316.239 53.9421ZM333.091 49.6063L339.158 64.1334L339.188 64.1976C339.334 64.4914 339.612 64.7008 339.938 64.7599L346.152 65.8844L346.094 65.9569C343.65 68.9428 340.264 71.7946 336.652 73.7982C331.973 76.3933 327.283 77.4042 323.21 76.476C317.408 75.1389 314.855 72.1983 314.579 68.1255C314.478 66.6316 314.698 65.0628 315.147 63.5232L315.211 63.3101C315.341 62.8874 315.482 62.4864 315.628 62.1168L315.717 61.8974L319.438 62.6974L319.495 62.7081C320.309 62.8392 320.958 62.0117 320.615 61.2477L318.027 55.4888L333.091 49.6063Z" fill="#283859"></path>
  <path fill-rule="evenodd" clip-rule="evenodd" d="M335.131 44.0439L336.458 44.9151C336.458 44.9151 344.421 49.2358 346.936 41.2215C348.822 35.1236 342.989 33.2072 340.055 32.6497" fill="white"></path>
  <path fill-rule="evenodd" clip-rule="evenodd" d="M339.026 32.4542C339.134 31.8871 339.683 31.5149 340.251 31.6229C342.44 32.0388 344.46 32.8065 345.971 34.0525C348.125 35.8299 348.917 38.3603 347.936 41.5339C346.9 44.8335 344.884 46.6161 342.235 47.0312C340.681 47.2747 339.063 47.0311 337.487 46.484L337.237 46.3946C336.672 46.1863 336.233 45.983 335.957 45.8335L335.919 45.8118L335.882 45.7885L334.555 44.9174C334.072 44.6 333.938 43.9518 334.256 43.4695C334.562 43.0051 335.176 42.8638 335.652 43.1374L335.707 43.1708L336.992 44.0144L337.113 44.0744L337.267 44.1465C337.536 44.2696 337.842 44.3935 338.176 44.5094C339.455 44.9533 340.748 45.148 341.91 44.9658C343.76 44.6759 345.135 43.4601 345.934 40.9134C346.662 38.5626 346.144 36.9081 344.635 35.6637C343.449 34.6848 341.732 34.0326 339.859 33.6767C339.291 33.5686 338.918 33.0213 339.026 32.4542Z" fill="#283859"></path>
  <path fill-rule="evenodd" clip-rule="evenodd" d="M306.632 28.9214C305.549 32.615 302.441 50.0723 313.687 54.393C324.898 58.7138 335.445 50.0374 339.427 39.2703C343.408 28.5033 340.929 18.015 333.874 15.088C326.819 12.161 314.49 2.26509 306.632 28.9214Z" fill="white"></path>
  <path fill-rule="evenodd" clip-rule="evenodd" d="M319.094 10.0925C313.524 11.373 309.094 17.0544 305.728 28.286L305.626 28.628C304.701 31.7833 304.075 36.9779 304.493 41.5175C305.116 48.2984 307.871 53.2786 313.31 55.3686C318.946 57.5406 324.729 56.7173 329.843 53.3632C334.498 50.3107 338.309 45.3148 340.41 39.6322C344.549 28.4401 341.971 17.3154 334.276 14.1228L334.079 14.0399C333.679 13.8691 333.238 13.6663 332.679 13.3995L330.57 12.3811C325.834 10.1267 322.586 9.28979 319.094 10.0925ZM307.59 29.379L307.637 29.2164C310.823 18.4079 314.828 13.2186 319.565 12.1298C322.365 11.4862 325.139 12.1557 329.239 14.066L329.826 14.3437L331.628 15.2152C332.382 15.5774 332.944 15.8344 333.471 16.0533C339.941 18.7375 342.238 28.6491 338.444 38.9086C336.493 44.1852 332.959 48.818 328.692 51.6161C324.122 54.6135 319.043 55.3366 314.064 53.4179C309.498 51.6633 307.138 47.3961 306.58 41.3266C306.195 37.1456 306.761 32.3141 307.59 29.379Z" fill="#283859"></path>
  <path fill-rule="evenodd" clip-rule="evenodd" d="M318.087 43.1031C315.817 43.4864 314.036 42.8592 313.093 42.4062C312.674 42.1972 312.15 42.4411 312.08 42.9289C311.836 44.3227 311.905 46.727 314.944 47.4239C318.122 48.1905 318.786 45.4029 318.925 43.8697C318.96 43.4167 318.541 42.9986 318.087 43.1031Z" fill="#283859"></path>
  <path fill-rule="evenodd" clip-rule="evenodd" d="M317.617 23.3451C317.849 22.8162 318.467 22.5752 318.997 22.8068C319.508 23.0301 319.751 23.6112 319.559 24.1266L319.536 24.1836L314.127 36.511L316.43 37.1087C316.97 37.2488 317.302 37.7845 317.195 38.3236L317.181 38.3835C317.04 38.9223 316.503 39.2532 315.963 39.1459L315.903 39.1322L312.411 38.2262C311.808 38.0698 311.478 37.4291 311.691 36.8544L311.714 36.7952L317.617 23.3451Z" fill="#283859"></path>
  <path fill-rule="evenodd" clip-rule="evenodd" d="M321.391 24.9731C323.196 24.1544 324.838 24.7419 326.146 26.1151C326.436 26.4198 326.689 26.7427 326.905 27.0662L326.998 27.2073C327.083 27.3408 327.146 27.4504 327.187 27.5286C327.457 28.0395 327.26 28.6716 326.748 28.9405C326.255 29.1995 325.649 29.0271 325.364 28.5578L325.292 28.4316C325.262 28.3805 325.219 28.3108 325.163 28.2271C325.009 27.9973 324.829 27.767 324.627 27.5554C323.895 26.7866 323.16 26.5075 322.34 26.841L322.258 26.8764C321.731 27.1153 321.11 26.8829 320.871 26.3574C320.631 25.8318 320.864 25.212 321.391 24.9731Z" fill="#283859"></path>
  <path fill-rule="evenodd" clip-rule="evenodd" d="M309.386 21.6637C311.133 20.5501 312.894 20.9607 314.401 22.2251C314.901 22.645 315.267 23.0637 315.483 23.3666C315.819 23.8368 315.709 24.4895 315.238 24.8246C314.785 25.1467 314.162 25.0579 313.817 24.6326L313.735 24.5251C313.703 24.4851 313.658 24.4301 313.6 24.3637C313.439 24.18 313.255 23.9954 313.052 23.8251C312.171 23.086 311.348 22.8941 310.514 23.4255C310.026 23.7364 309.378 23.5939 309.067 23.1074C308.755 22.6209 308.898 21.9746 309.386 21.6637Z" fill="#283859"></path>
  <path fill-rule="evenodd" clip-rule="evenodd" d="M322.045 34.1595C322.255 33.1416 321.905 32.2096 321.262 32.0776C320.62 31.9457 319.929 32.664 319.719 33.6819C319.509 34.6997 319.86 35.6318 320.502 35.7637C321.144 35.8957 321.835 35.1774 322.045 34.1595Z" fill="#283859"></path>
  <path fill-rule="evenodd" clip-rule="evenodd" d="M310.566 31.9645C310.776 30.9466 310.426 30.0145 309.783 29.8826C309.141 29.7507 308.45 30.4689 308.24 31.4868C308.03 32.5047 308.381 33.4368 309.023 33.5687C309.665 33.7006 310.356 32.9824 310.566 31.9645Z" fill="#283859"></path>
  <path fill-rule="evenodd" clip-rule="evenodd" d="M349.944 75.5445C353.055 72.1767 352.439 66.5599 348.567 62.9989C344.695 59.438 339.034 59.2814 335.922 62.6492C332.811 66.0169 333.427 71.6338 337.299 75.1947C341.171 78.7557 346.832 78.9123 349.944 75.5445Z" fill="#283859"></path>
  <path fill-rule="evenodd" clip-rule="evenodd" d="M345.679 88.648C348.451 85.6481 347.892 80.6361 344.432 77.4535C340.971 74.2708 335.919 74.1226 333.147 77.1225C330.375 80.1223 330.934 85.1343 334.394 88.317C337.855 91.4996 342.907 91.6478 345.679 88.648Z" fill="#283859"></path>
  <path fill-rule="evenodd" clip-rule="evenodd" d="M337.227 99.4125C334.852 101.817 330.661 101.573 327.867 98.8899C325.073 96.172 324.723 92.0603 327.098 89.6211C329.473 87.2168 333.734 87.2517 336.528 89.9347C339.322 92.6178 339.602 97.0082 337.227 99.4125Z" fill="#283859"></path>
  <path fill-rule="evenodd" clip-rule="evenodd" d="M332.511 109.343C329.473 110.981 328.984 113.141 329.228 114.884C329.333 115.685 328.39 116.208 327.797 115.685C324.269 112.549 318.891 106.486 323.256 101.538C325.317 99.2035 329.054 98.8899 331.918 101.085C334.747 103.28 335.271 107.88 332.511 109.343Z" fill="#283859"></path>
  <path fill-rule="evenodd" clip-rule="evenodd" d="M338.687 60.1441C338.91 59.4324 339.653 59.0262 340.369 59.2106L340.438 59.2303L349.029 61.9133C349.766 62.1433 350.176 62.9252 349.945 63.6598C349.722 64.3715 348.98 64.7777 348.264 64.5933L348.195 64.5736L339.603 61.8906C338.867 61.6606 338.457 60.8787 338.687 60.1441Z" fill="#A0DCFF"></path>
  <path fill-rule="evenodd" clip-rule="evenodd" d="M336.413 74.7246C336.684 74.0297 337.453 73.6746 338.154 73.9069L338.222 73.9312L345.312 76.6839C346.031 76.9631 346.387 77.771 346.107 78.4883C345.836 79.1833 345.068 79.5384 344.366 79.3061L344.298 79.2818L337.209 76.529C336.49 76.2498 336.134 75.442 336.413 74.7246Z" fill="#A0DCFF"></path>
  <path fill-rule="evenodd" clip-rule="evenodd" d="M333.038 88.1394C333.403 87.4893 334.212 87.2435 334.874 87.5689L334.94 87.6034L337 88.7533C337.674 89.129 337.914 89.9783 337.537 90.6501C337.173 91.3002 336.364 91.546 335.702 91.2206L335.636 91.1862L333.576 90.0363C332.902 89.6605 332.662 88.8113 333.038 88.1394Z" fill="#A0DCFF"></path>
  <path fill-rule="evenodd" clip-rule="evenodd" d="M328.045 98.8322C328.374 98.1631 329.171 97.8751 329.849 98.1666L329.915 98.1966L332.045 99.242C332.738 99.5817 333.023 100.417 332.682 101.108C332.352 101.777 331.556 102.065 330.877 101.773L330.812 101.743L328.682 100.698C327.989 100.358 327.704 99.523 328.045 98.8322Z" fill="#A0DCFF"></path>
  <path fill-rule="evenodd" clip-rule="evenodd" d="M354.794 45.0894C352.524 42.8942 349.695 41.6049 346.901 41.3262C344.91 47.3892 339.741 46.2045 337.541 45.3682C334.572 49.6193 335.445 55.961 339.846 60.2469C344.7 64.951 351.965 65.3691 356.121 61.1878C360.277 57.0064 359.614 49.7935 354.794 45.0894Z" fill="#283859"></path>
  <path fill-rule="evenodd" clip-rule="evenodd" d="M354.689 26.8307C353.851 21.2555 344.072 12.2655 336.423 12.3352C326.574 2.36956 311.905 -7.59607 303.349 9.89606C302.441 11.7428 303.488 13.9729 305.444 14.4607L340.963 24.9839C341.417 27.3882 341.487 30.0712 341.068 32.8588C344.142 33.6603 348.647 35.7509 346.936 41.1867C344.596 48.7132 337.471 45.403 336.563 44.95C335.096 47.2149 333.315 49.2708 331.324 50.9433C338.274 55.055 346.097 57.5638 350.358 51.919C355.562 45.0545 355.842 34.6011 354.689 26.8307Z" fill="#283859"></path>
  <path fill-rule="evenodd" clip-rule="evenodd" d="M316.704 30.7143C315.691 36.6601 318.488 42.1698 323.1 42.9499C327.711 43.7299 332.177 39.4487 333.191 33.503C334.204 27.5572 331.407 22.0474 326.795 21.2674C322.184 20.4874 317.718 24.7686 316.704 30.7143ZM318.253 30.9763C319.135 25.8012 322.894 22.1984 326.532 22.8138C330.17 23.4292 332.524 28.0659 331.642 33.241C330.76 38.4161 327.001 42.0189 323.363 41.4035C319.725 40.7881 317.371 36.1514 318.253 30.9763Z" fill="#D0C0E5"></path>
  <path fill-rule="evenodd" clip-rule="evenodd" d="M297.099 26.9399C296.086 32.8857 298.883 38.3954 303.495 39.1755C308.106 39.9555 312.573 35.6743 313.586 29.7285C314.599 23.7828 311.802 18.273 307.19 17.493C302.579 16.7129 298.113 20.9942 297.099 26.9399ZM298.648 27.2019C299.53 22.0268 303.289 18.424 306.927 19.0394C310.565 19.6548 312.919 24.2915 312.037 29.4666C311.155 34.6416 307.396 38.2445 303.758 37.6291C300.12 37.0137 297.766 32.377 298.648 27.2019Z" fill="#D0C0E5"></path>
  <path fill-rule="evenodd" clip-rule="evenodd" d="M312.426 26.9645C312.502 26.5575 312.882 26.2835 313.288 26.3304L313.343 26.3388L317.988 27.21C318.415 27.2899 318.696 27.6998 318.615 28.1253C318.539 28.5323 318.16 28.8063 317.754 28.7594L317.698 28.751L313.053 27.8799C312.626 27.7999 312.346 27.3901 312.426 26.9645Z" fill="#D0C0E5"></path>
  <path fill-rule="evenodd" clip-rule="evenodd" d="M331.941 29.6127C332.073 29.22 332.487 29.0007 332.883 29.1029L332.936 29.1188L343.449 32.6382C343.86 32.7759 344.082 33.2203 343.944 33.6308C343.812 34.0235 343.399 34.2429 343.003 34.1407L342.949 34.1247L332.436 30.6054C332.025 30.4676 331.803 30.0232 331.941 29.6127Z" fill="#D0C0E5"></path>
  <path fill-rule="evenodd" clip-rule="evenodd" d="M150.201 146.314L150.271 160.809L168.747 161.889V148.16C168.747 148.16 172.903 145.791 171.506 138.299C170.109 130.808 148.49 133.282 147.302 137.846C146.115 142.411 150.201 146.314 150.201 146.314Z" fill="white"></path>
  <path fill-rule="evenodd" clip-rule="evenodd" d="M159.279 132.507L158.89 132.527C152.554 132.873 147.008 134.818 146.288 137.584C145.629 140.119 146.288 142.613 147.76 144.914C148.129 145.492 148.524 146.013 148.92 146.472L149.047 146.617L149.155 146.736L149.223 160.814C149.226 161.366 149.658 161.82 150.21 161.853L168.685 162.933L168.747 162.935C169.321 162.935 169.794 162.47 169.794 161.889L169.794 148.693L169.904 148.602C170.326 148.241 170.742 147.791 171.127 147.242C172.649 145.076 173.271 142.052 172.536 138.108C171.77 134.002 166.369 132.195 159.279 132.507ZM170.475 138.491C171.109 141.891 170.605 144.343 169.411 146.042C169.13 146.442 168.833 146.764 168.541 147.014C168.463 147.081 168.391 147.137 168.327 147.184L168.226 147.253L168.167 147.29C167.876 147.482 167.699 147.809 167.699 148.16L167.698 160.781L151.313 159.823L151.249 146.309C151.247 146.049 151.149 145.8 150.975 145.609L150.824 145.455L150.705 145.329C150.643 145.261 150.577 145.187 150.508 145.107C150.174 144.721 149.839 144.278 149.527 143.79C148.339 141.933 147.826 139.993 148.316 138.109C148.716 136.573 153.781 134.843 159.371 134.596C165.509 134.325 169.978 135.821 170.475 138.491Z" fill="#283859"></path>
  <rect x="149.433" y="114.814" width="20.1519" height="26.8306" fill="#A0DCFF"></rect>
  <path fill-rule="evenodd" clip-rule="evenodd" d="M150.166 146.209C146.359 145.059 147.232 137.533 147.791 135.686C148.175 134.432 149.048 131.435 148.978 129.205C148.943 128.229 150.34 127.114 151.283 127.498C152.436 127.951 153.519 129.902 153.728 136C156.662 139.31 157.745 142.934 157.745 142.934" fill="white"></path>
  <path fill-rule="evenodd" clip-rule="evenodd" d="M147.935 129.401L147.931 129.242C147.869 127.507 150.03 125.859 151.668 126.525C153.536 127.259 154.508 129.975 154.752 135.375L154.761 135.593L154.987 135.862L155.216 136.146C156.336 137.558 157.234 139.067 157.933 140.577C158.148 141.04 158.331 141.476 158.483 141.876L158.547 142.045C158.647 142.318 158.714 142.519 158.749 142.635C158.914 143.188 158.599 143.771 158.044 143.935C157.509 144.095 156.948 143.807 156.76 143.291L156.692 143.083C156.67 143.018 156.642 142.937 156.607 142.842L156.58 142.768C156.435 142.373 156.252 141.931 156.031 141.454C155.397 140.086 154.582 138.717 153.573 137.443C153.369 137.186 153.159 136.936 152.943 136.692C152.782 136.51 152.689 136.278 152.681 136.035C152.585 133.25 152.302 131.255 151.866 129.965C151.549 129.026 151.211 128.593 150.888 128.465C150.693 128.386 150.016 128.903 150.026 129.172C150.086 131.109 149.592 133.381 148.794 135.988C148.464 137.078 148.235 139.312 148.385 141.122C148.572 143.365 149.261 144.792 150.396 145.185L150.469 145.209C151.023 145.376 151.336 145.959 151.169 146.512C151.001 147.065 150.416 147.377 149.862 147.21C147.638 146.538 146.551 144.347 146.297 141.295C146.125 139.225 146.381 136.728 146.789 135.38C147.498 133.064 147.952 131.006 147.935 129.401Z" fill="#283859"></path>
  <path fill-rule="evenodd" clip-rule="evenodd" d="M162.215 131.958C160.155 127.497 169.026 123.804 169.026 123.804C170.807 122.968 174.23 125.72 168.886 128.299" fill="white"></path>
  <path fill-rule="evenodd" clip-rule="evenodd" d="M168.659 122.822C170.073 122.217 171.944 122.932 172.582 124.34C173.364 126.067 172.163 127.879 169.342 129.24C168.821 129.491 168.195 129.274 167.943 128.754C167.691 128.234 167.909 127.609 168.43 127.358C170.359 126.427 170.875 125.648 170.673 125.201C170.511 124.844 169.889 124.601 169.518 124.731L169.472 124.75L169.21 124.865L169.154 124.89C168.924 124.995 168.665 125.118 168.387 125.259C167.591 125.662 166.795 126.121 166.058 126.626C163.605 128.306 162.511 129.965 163.133 131.445L163.167 131.52C163.409 132.044 163.179 132.665 162.654 132.907C162.128 133.149 161.506 132.92 161.264 132.395C159.995 129.65 161.627 127.125 164.872 124.903C165.693 124.341 166.566 123.836 167.439 123.395C167.694 123.266 167.933 123.15 168.155 123.048L168.463 122.908L168.659 122.822Z" fill="#283859"></path>
  <path fill-rule="evenodd" clip-rule="evenodd" d="M161.936 136.766C159.875 132.306 169.061 128.229 169.061 128.229C169.061 128.229 172.029 126.557 172.763 129.344C173.357 131.54 170.004 132.376 169.969 132.48" fill="white"></path>
  <path fill-rule="evenodd" clip-rule="evenodd" d="M171.047 126.691C172.363 126.759 173.378 127.565 173.774 129.072C174.204 130.661 173.387 131.872 171.929 132.722C171.576 132.928 171.221 133.094 170.817 133.256L170.499 133.382L170.488 133.388C170.255 133.521 169.972 133.564 169.696 133.49L169.637 133.472C169.088 133.289 168.792 132.697 168.975 132.15C169.071 131.862 169.208 131.728 169.394 131.603C169.43 131.579 169.463 131.559 169.496 131.541L169.546 131.516C169.583 131.498 169.62 131.482 169.663 131.464L170.033 131.317C170.351 131.189 170.62 131.064 170.872 130.917C171.608 130.488 171.878 130.087 171.749 129.61C171.585 128.985 171.352 128.8 170.939 128.779C170.663 128.764 170.327 128.833 169.982 128.96L169.86 129.008C169.745 129.054 169.656 129.097 169.601 129.126L169.576 129.139C169.547 129.156 169.517 129.171 169.487 129.184L169.338 129.253L169.197 129.32C168.955 129.436 168.685 129.573 168.393 129.728C167.559 130.171 166.726 130.672 165.953 131.218C163.398 133.025 162.236 134.777 162.855 136.255L162.887 136.329C163.13 136.853 162.9 137.474 162.375 137.715C161.849 137.957 161.227 137.728 160.984 137.204C159.718 134.463 161.402 131.873 164.742 129.513C165.594 128.91 166.501 128.365 167.408 127.883L167.717 127.721C167.919 127.617 168.109 127.522 168.286 127.437L168.478 127.346L168.601 127.289C168.736 127.216 168.924 127.128 169.152 127.038L169.253 127C169.797 126.799 170.353 126.679 170.908 126.686L171.047 126.691Z" fill="#283859"></path>
  <path fill-rule="evenodd" clip-rule="evenodd" d="M163.543 141.784C162.425 141.61 162.041 140.39 162.041 140.39C159.98 135.93 171.052 131.958 171.052 131.958C171.052 131.958 175.452 133.421 172.099 136.627" fill="white"></path>
  <path fill-rule="evenodd" clip-rule="evenodd" d="M170.697 130.974C170.918 130.895 171.16 130.892 171.383 130.966L171.471 130.997C171.569 131.033 171.696 131.084 171.844 131.151C172.168 131.297 172.492 131.474 172.8 131.686C174.778 133.047 175.135 135.172 172.824 137.382C172.406 137.781 171.743 137.767 171.343 137.35C170.942 136.933 170.957 136.272 171.374 135.872L171.516 135.733C172.65 134.599 172.525 134.036 171.61 133.407C171.453 133.299 171.283 133.202 171.11 133.117L171.035 133.081C170.78 133.181 170.5 133.295 170.201 133.422L170.019 133.499C168.967 133.952 167.916 134.464 166.941 135.024C163.864 136.789 162.399 138.517 162.964 139.889L163.018 140.014L163.04 140.077C163.061 140.144 163.136 140.302 163.255 140.453C163.376 140.608 163.504 140.702 163.649 140.74L163.704 140.751C164.276 140.84 164.667 141.375 164.578 141.945C164.488 142.516 163.953 142.906 163.381 142.817C162.636 142.701 162.045 142.304 161.604 141.742C161.357 141.426 161.193 141.114 161.094 140.854L161.062 140.767L161.043 140.725C160.409 139.251 160.775 137.757 161.895 136.366L161.974 136.269C162.876 135.187 164.22 134.173 165.896 133.211C166.948 132.608 168.068 132.062 169.189 131.58C169.515 131.439 169.822 131.312 170.105 131.2L170.411 131.081C170.54 131.032 170.636 130.996 170.697 130.974Z" fill="#283859"></path>
  <path fill-rule="evenodd" clip-rule="evenodd" d="M171.959 136.836C171.959 136.836 161.552 141.226 164.765 144.188C166.86 145.861 173.391 141.749 173.356 139.728C173.321 137.672 172.798 137.01 171.959 136.836Z" fill="white"></path>
  <path fill-rule="evenodd" clip-rule="evenodd" d="M171.551 135.873L171.195 136.029L170.909 136.159C170.712 136.249 170.503 136.347 170.283 136.453C169.341 136.907 168.398 137.407 167.513 137.939C165.661 139.053 164.305 140.156 163.611 141.29C162.827 142.572 162.923 143.914 164.054 144.956L164.11 145.004C165.524 146.133 167.901 145.656 170.377 144.252C172.697 142.937 174.43 141.195 174.404 139.71C174.364 137.381 173.686 136.127 172.173 135.813C171.964 135.769 171.747 135.79 171.551 135.873ZM171.972 137.973L171.983 137.984C172.181 138.184 172.29 138.656 172.309 139.746C172.316 140.184 171.029 141.478 169.342 142.434L169.225 142.499C167.522 143.44 165.983 143.752 165.454 143.397L165.443 143.389L165.392 143.338C165.125 143.054 165.133 142.815 165.4 142.379C165.87 141.61 167.012 140.681 168.595 139.729C169.419 139.234 170.306 138.764 171.194 138.336L171.498 138.191C171.596 138.145 171.692 138.101 171.784 138.058L171.972 137.973Z" fill="#283859"></path>
  <path fill-rule="evenodd" clip-rule="evenodd" d="M146.744 151.715L141.889 181.542L122.191 190.218L122.156 190.183L69.2092 211.683C62.6781 215.028 59.3253 223.704 58.522 230.987L50.4543 280.397C49.5462 285.937 53.3531 291.129 58.9062 291.93L125.998 290.815C125.998 290.815 126.382 288.864 126.976 286.181L150.026 289.944L138.187 223.077L165.289 208.581C168.397 206.909 169.794 201.612 169.969 198.093L172.029 151.715H146.744Z" fill="#FFC3D8"></path>
  <path fill-rule="evenodd" clip-rule="evenodd" d="M105.706 214.958C111.399 213.704 115.101 208.616 113.844 202.937L110.177 186.385C108.919 180.706 103.261 177.117 97.5686 178.371C91.8757 179.626 88.2784 185.27 89.5357 190.95L93.0981 206.944C94.3554 212.624 99.9784 216.213 105.706 214.958Z" fill="white"></path>
  <path fill-rule="evenodd" clip-rule="evenodd" d="M97.5297 177.311L97.3423 177.35C91.0869 178.729 87.1297 184.93 88.5123 191.176L92.075 207.171C93.4427 213.349 99.5139 217.278 105.742 216.019L105.922 215.981C112.281 214.58 116.231 208.873 114.867 202.711L111.199 186.16C109.833 179.989 103.734 176.049 97.5297 177.311ZM109.153 186.611L112.82 203.162C113.927 208.162 110.731 212.78 105.48 213.937L105.318 213.972C100.217 215.003 95.2421 211.783 94.1209 206.718L90.5582 190.723L90.5256 190.57C89.5008 185.555 92.6563 180.611 97.6411 179.427L97.7918 179.392L97.9567 179.357C103.033 178.325 108.034 181.555 109.153 186.611Z" fill="#283859"></path>
  <path fill-rule="evenodd" clip-rule="evenodd" d="M106.719 155.617C106.719 155.617 97.7779 170.705 108.221 175.235C108.221 175.235 112.761 177.012 114.787 175.165C114.787 175.165 111.608 173.284 112.901 170.81C112.901 170.81 117.79 178.789 123.762 173.597C123.762 173.597 119.362 171.193 117.755 166.454C114.402 156.558 109.443 152.133 106.719 155.617Z" fill="#283859"></path>
  <path fill-rule="evenodd" clip-rule="evenodd" d="M82.4106 178.545C82.4106 178.545 73.9587 162.133 90.5483 153.353C92.085 152.551 102.772 147.15 107.871 155.757C111.294 161.506 113.774 168.162 115.345 173.423C115.345 173.458 118.454 183.354 116.358 190.114C114.263 196.874 105.461 199.208 100.013 198.024C94.5647 196.839 93.2375 195.724 90.8975 192.936C88.5575 190.184 82.4106 178.58 82.4106 178.545Z" fill="white"></path>
  <path fill-rule="evenodd" clip-rule="evenodd" d="M83.7958 178.93L83.4102 178.201C84.2011 179.72 83.4585 178.256 83.4585 178.545C83.4585 178.403 83.4293 178.262 83.3731 178.132L83.266 177.91L83.1806 177.725C83.1359 177.626 83.0885 177.518 83.0388 177.401C82.7992 176.838 82.5586 176.194 82.3336 175.482C81.0879 171.538 80.85 167.419 82.2343 163.607C83.5851 159.887 86.417 156.723 91.0394 154.276C91.7701 153.895 92.5616 153.529 93.5536 153.159C95.0257 152.609 96.5218 152.223 97.9857 152.066C101.813 151.657 104.859 152.838 106.884 156.148L106.97 156.291L107.173 156.634C110.067 161.58 112.505 167.575 114.341 173.722L114.367 173.714L114.643 174.806C114.827 175.542 115.044 176.436 115.189 177.132C115.737 179.771 116.057 182.405 116.035 184.846C116.018 186.709 115.799 188.379 115.357 189.805C114.483 192.626 112.219 194.788 109.047 196.08C106.191 197.244 102.843 197.569 100.236 197.002L99.8653 196.921C95.5599 195.96 94.2077 195.187 91.9873 192.603L91.7009 192.265C90.749 191.145 88.9885 188.283 86.8018 184.408L86.6902 184.21C85.9742 182.938 85.2528 181.629 84.5802 180.388L83.937 179.194C83.8882 179.103 83.841 179.015 83.7958 178.93ZM116.358 173.155L116.358 173.158L116.349 173.125C114.469 166.83 111.97 160.685 108.982 155.578L108.773 155.225C106.29 151.034 102.401 149.491 97.7622 149.987C96.1069 150.164 94.4447 150.594 92.8191 151.201C91.7355 151.605 90.8697 152.005 90.063 152.426C84.9846 155.114 81.7954 158.677 80.264 162.895C78.6996 167.204 78.9631 171.767 80.335 176.111C80.581 176.889 80.8449 177.596 81.1099 178.218L81.1497 178.311C81.2927 178.643 81.4068 178.883 81.4788 179.023L81.5219 179.001L81.5557 179.077L81.6316 179.242C82.8987 181.955 88.2888 191.416 90.0432 193.546L90.0985 193.612C92.8587 196.901 94.5512 197.906 99.79 199.045C102.819 199.704 106.598 199.336 109.839 198.016C113.553 196.503 116.283 193.895 117.359 190.423C117.867 188.784 118.112 186.917 118.131 184.865C118.154 182.256 117.817 179.481 117.241 176.707C117.068 175.878 116.885 175.103 116.699 174.388L116.63 174.123C116.586 173.96 116.545 173.809 116.505 173.667L116.358 173.155Z" fill="#283859"></path>
  <path fill-rule="evenodd" clip-rule="evenodd" d="M107.1 169.42C107.619 169.215 108.204 169.451 108.437 169.95L108.461 170.006L112.023 178.961C112.233 179.487 111.983 180.08 111.47 180.304L111.412 180.327L108.478 181.408C107.936 181.607 107.333 181.33 107.133 180.789C106.94 180.267 107.191 179.689 107.696 179.469L107.753 179.446L109.679 178.737L106.513 170.777C106.307 170.26 106.544 169.676 107.044 169.444L107.1 169.42Z" fill="#283859"></path>
  <path fill-rule="evenodd" clip-rule="evenodd" d="M111.308 170.727C111.786 170.522 111.922 169.768 111.61 169.043C111.298 168.318 110.657 167.896 110.179 168.101C109.7 168.306 109.565 169.06 109.877 169.785C110.188 170.51 110.829 170.932 111.308 170.727Z" fill="#283859"></path>
  <path fill-rule="evenodd" clip-rule="evenodd" d="M102.937 174.474C103.445 174.362 103.72 173.647 103.549 172.876C103.379 172.106 102.828 171.572 102.32 171.684C101.811 171.796 101.537 172.511 101.708 173.282C101.878 174.052 102.428 174.586 102.937 174.474Z" fill="#283859"></path>
  <path fill-rule="evenodd" clip-rule="evenodd" d="M98.5154 166.509C99.0828 166.396 99.6348 166.763 99.7483 167.329C99.8577 167.875 99.5195 168.407 98.9864 168.546L98.9264 168.559C98.1447 168.715 97.5542 169.079 97.1062 169.595C96.8926 169.842 96.7256 170.108 96.6019 170.372C96.5703 170.439 96.5437 170.502 96.522 170.558L96.4847 170.663C96.3346 171.22 95.7598 171.551 95.201 171.401C94.6421 171.251 94.3108 170.678 94.4609 170.12C94.5009 169.972 94.5785 169.753 94.7035 169.486C94.9049 169.057 95.1735 168.629 95.5214 168.228C96.2627 167.373 97.2579 166.76 98.5154 166.509Z" fill="#283859"></path>
  <path fill-rule="evenodd" clip-rule="evenodd" d="M106.939 162.204C107.914 161.616 108.919 161.28 109.932 161.356C110.551 161.403 111.135 161.607 111.658 161.98C112.129 162.315 112.238 162.968 111.902 163.438C111.579 163.89 110.961 164.008 110.496 163.718L110.44 163.681C110.236 163.535 110.019 163.459 109.775 163.441C109.276 163.403 108.66 163.609 108.023 163.993C107.849 164.098 107.684 164.21 107.532 164.323L107.421 164.408C107.362 164.455 107.313 164.494 107.277 164.524L107.218 164.576C106.792 164.966 106.129 164.938 105.738 164.513C105.346 164.088 105.374 163.427 105.8 163.036C106.04 162.816 106.432 162.51 106.939 162.204Z" fill="#283859"></path>
  <path fill-rule="evenodd" clip-rule="evenodd" d="M92.155 162.447C92.155 162.447 102.598 185.619 86.8463 190.462C86.8463 190.462 77.6959 193.494 75.0765 190.497C75.0765 190.497 81.363 185.898 79.9311 182.134C79.9311 182.134 73.5048 191.612 65.9609 186.595C65.9609 186.595 76.7878 183.145 74.343 173.284C72.5968 166.245 88.8371 157.011 92.155 162.447Z" fill="#283859"></path>
  <path fill-rule="evenodd" clip-rule="evenodd" d="M64.7036 173.667L73.6445 169.137C72.5269 162.482 73.2254 152.203 85.7287 146.418C105.287 137.359 112.412 156.872 112.412 156.872L67.6373 179.451C66.0308 180.253 64.1099 179.625 63.3066 178.023C62.4684 176.42 63.097 174.503 64.7036 173.667Z" fill="#FFC3D8"></path>
  <path fill-rule="evenodd" clip-rule="evenodd" d="M102.884 184.206C103.302 183.84 103.93 183.865 104.318 184.253L104.363 184.302C104.44 184.389 104.643 184.566 104.957 184.752C106.106 185.433 107.55 185.523 109.384 184.584C109.899 184.321 110.53 184.523 110.794 185.037C111.059 185.551 110.855 186.181 110.34 186.444C107.842 187.723 105.636 187.586 103.887 186.55C103.587 186.372 103.325 186.18 103.102 185.986C102.959 185.861 102.854 185.756 102.788 185.682C102.407 185.248 102.449 184.587 102.884 184.206Z" fill="#283859"></path>
  <path fill-rule="evenodd" clip-rule="evenodd" d="M139.898 276.146C139.898 276.146 145.906 275.797 152.297 276.912C156.104 277.574 162.565 278.689 163.229 279.665C164.765 281.965 158.933 283.15 156.174 281.233" fill="white"></path>
  <path fill-rule="evenodd" clip-rule="evenodd" d="M140.491 275.075C144.038 274.962 148.276 275.15 152.477 275.882L155.132 276.351C155.496 276.417 155.832 276.479 156.18 276.544L156.604 276.625C159.126 277.108 161.01 277.545 162.25 277.973C163.19 278.297 163.772 278.602 164.1 279.085C164.733 280.032 164.658 281.073 163.933 281.858C163.398 282.437 162.552 282.834 161.531 283.052C159.504 283.485 157.121 283.165 155.575 282.091C155.1 281.761 154.983 281.11 155.314 280.636C155.644 280.162 156.297 280.045 156.772 280.375C157.796 281.086 159.593 281.328 161.093 281.008C161.69 280.88 162.142 280.677 162.355 280.478L162.392 280.441C162.434 280.395 162.449 280.389 162.429 280.352L162.403 280.312L162.351 280.281L162.281 280.242C162.114 280.154 161.872 280.055 161.565 279.949C160.55 279.599 158.961 279.219 156.856 278.804L155.585 278.56C154.666 278.388 153.768 278.229 152.116 277.942C148.204 277.259 144.23 277.068 140.881 277.155L140.362 277.171L139.959 277.189C139.382 277.223 138.886 276.783 138.852 276.206C138.82 275.651 139.229 275.171 139.776 275.107L139.86 275.101L140.188 275.086C140.281 275.082 140.382 275.079 140.491 275.075Z" fill="#283859"></path>
  <path fill-rule="evenodd" clip-rule="evenodd" d="M155.999 284.474C161.412 286.111 162.006 284.892 160.854 282.522C160.19 281.163 151.214 277.505 149.433 276.982C147.652 276.459 138.047 275.762 138.047 275.762L130.853 274.996C128.827 279.491 127.151 287.435 126.592 290.119C136.86 289.805 150.865 289.909 150.865 289.909C156.243 290.258 154.462 287.854 152.262 287.052C150.027 286.251 145.975 284.369 145.382 284.509C145.382 284.509 151.179 286.146 153.799 287.784C155.65 288.516 157.745 287.261 157.92 286.669C158.129 286.077 156.418 284.474 153.589 283.045C150.76 281.616 147.093 280.362 147.093 280.362" fill="white"></path>
  <path fill-rule="evenodd" clip-rule="evenodd" d="M129.897 274.567C130.074 274.174 130.473 273.932 130.9 273.952L130.964 273.956L138.156 274.722L138.628 274.757L139.551 274.829L140.982 274.945C141.836 275.016 142.681 275.09 143.496 275.165L144.465 275.258C145.656 275.374 146.692 275.488 147.536 275.596L147.993 275.657C148.789 275.768 149.365 275.872 149.728 275.979L149.942 276.045C151.077 276.41 153.533 277.388 155.7 278.354L156.344 278.645C159.503 280.085 161.347 281.147 161.796 282.066C162.639 283.798 162.709 285.151 161.416 285.904C160.859 286.228 160.103 286.333 159.094 286.234L158.934 286.217L158.939 286.236C158.998 286.484 158.996 286.725 158.928 286.954L158.925 286.964C158.627 287.975 157.148 288.825 155.573 289.001L155.454 289.013L155.452 289.08C155.405 289.82 154.885 290.384 154.086 290.681L154 290.712C153.317 290.945 152.372 291.029 151.14 290.972L150.825 290.955L149.322 290.946L147.804 290.941C143.458 290.929 138.745 290.945 134.223 291.005L132.56 291.03C130.415 291.064 128.426 291.108 126.624 291.163C125.946 291.184 125.428 290.568 125.566 289.906L125.711 289.213C127.018 283.022 128.316 278.075 129.897 274.567ZM137.936 276.802L131.508 276.117L131.485 276.174C130.232 279.203 129.129 283.341 128.038 288.354L127.891 289.036L129.324 289.001C130.191 288.981 131.09 288.963 132.02 288.948L133.396 288.926C138.438 288.853 143.756 288.836 148.574 288.853L150.873 288.864L150.933 288.866C151.939 288.932 152.681 288.894 153.143 288.785L153.158 288.78L153.112 288.737L153.05 288.682C152.751 288.429 152.334 288.191 151.907 288.036L151.706 287.963C151.253 287.797 150.761 287.603 150.012 287.298L147.717 286.358L147.37 286.218L146.995 286.096L146.577 285.962L146.196 285.843C146.072 285.805 145.952 285.768 145.836 285.733L145.096 285.514C144.056 285.22 144.089 283.738 145.142 283.491L145.242 283.47C145.727 283.378 146.176 283.486 147.908 284.179L148.12 284.263L148.502 284.391C149.073 284.584 149.638 284.783 150.186 284.987L150.594 285.141C152.017 285.685 153.205 286.219 154.115 286.754L154.257 286.838L154.281 286.847C154.799 287.022 155.406 286.992 156.002 286.787L156.114 286.746C156.324 286.666 156.518 286.569 156.679 286.467L156.708 286.447L156.693 286.429C156.587 286.311 156.452 286.177 156.29 286.033L156.207 285.96C155.473 285.325 154.386 284.619 153.116 283.978C152.63 283.733 152.098 283.482 151.526 283.228C150.483 282.764 149.363 282.312 148.242 281.891L147.675 281.68C147.494 281.614 147.321 281.551 147.158 281.493L146.753 281.351C146.206 281.164 145.914 280.569 146.102 280.023C146.283 279.496 146.843 279.207 147.374 279.355L147.452 279.38L147.863 279.524L148.213 279.65C148.454 279.738 148.711 279.833 148.981 279.934C150.138 280.369 151.295 280.836 152.378 281.318C152.98 281.585 153.544 281.851 154.062 282.112C154.943 282.557 155.745 283.021 156.433 283.489L156.494 283.53L156.658 283.579L157.018 283.68C157.897 283.923 158.623 284.075 159.199 284.141L159.306 284.153C159.785 284.2 160.108 284.18 160.275 284.132L160.296 284.125L160.296 284.111C160.285 283.89 160.174 283.538 159.959 283.08L159.911 282.98C159.782 282.714 157.775 281.584 155.131 280.391L154.56 280.136C152.442 279.202 150.109 278.281 149.197 278.003L149.137 277.985C148.881 277.91 148.329 277.813 147.552 277.707L147.099 277.648C146.197 277.535 145.075 277.415 143.782 277.292C142.829 277.202 141.824 277.113 140.807 277.028L139.193 276.898L137.936 276.802Z" fill="#283859"></path>
  <path fill-rule="evenodd" clip-rule="evenodd" d="M93.0335 244.091C93.5901 244.131 94.0137 244.598 94.0061 245.147L94.0034 245.209L92.6433 264.074L131.359 268.626C131.913 268.692 132.315 269.177 132.283 269.726L132.277 269.787C132.212 270.34 131.725 270.741 131.175 270.708L131.114 270.703L91.4038 266.034C90.8681 265.971 90.4715 265.514 90.4787 264.982L90.4814 264.92L91.9133 245.059C91.9533 244.504 92.4211 244.081 92.972 244.089L93.0335 244.091Z" fill="white"></path>
  <path fill-rule="evenodd" clip-rule="evenodd" d="M469 289.387C469.578 289.387 470.048 289.855 470.048 290.432C470.048 290.989 469.611 291.444 469.061 291.476L469 291.477H1.20938C0.63072 291.477 0.161621 291.009 0.161621 290.432C0.161621 289.875 0.597811 289.42 1.14782 289.388L1.20938 289.387H469Z" fill="#283859"></path>
</svg>
